<svg width="802" height="802" viewBox="0 0 802 802" fill="none" xmlns="http://www.w3.org/2000/svg">
    <path d="M587 403L400 403L400 775L587 403Z" fill="#00467F"/>
    <rect x="213" y="28" width="187" height="374" fill="#00467F"/>
    <path d="M774 401C774 352.017 764.339 303.514 745.569 258.259C726.799 213.005 699.287 171.885 664.604 137.249C629.922 102.613 588.747 75.1379 543.432 56.3929C498.117 37.6479 449.549 28 400.5 28L400.5 401H774Z"
          fill="#00467F"/>
    <path d="M401.061 0.939331C400.475 0.353577 399.525 0.353577 398.939 0.939331L389.393 10.4853C388.808 11.071 388.808 12.0208 389.393 12.6066C389.979 13.1924 390.929 13.1924 391.515 12.6066L400 4.12134L408.485 12.6066C409.071 13.1924 410.021 13.1924 410.607 12.6066C411.192 12.0208 411.192 11.071 410.607 10.4853L401.061 0.939331ZM401.5 802L401.5 2L398.5 2L398.5 802L401.5 802Z"
          fill="black"/>
    <path d="M801.061 403.061C801.646 402.475 801.646 401.525 801.061 400.939L791.515 391.393C790.929 390.808 789.979 390.808 789.393 391.393C788.808 391.979 788.808 392.929 789.393 393.515L797.879 402L789.393 410.485C788.808 411.071 788.808 412.021 789.393 412.607C789.979 413.192 790.929 413.192 791.515 412.607L801.061 403.061ZM0 403.5H800V400.5H0V403.5Z"
          fill="black"/>
    <line x1="587.5" y1="380" x2="587.5" y2="424" stroke="black"/>
    <line x1="213.5" y1="380" x2="213.5" y2="424" stroke="black"/>
    <line x1="421" y1="589.5" x2="379" y2="589.5" stroke="black"/>
    <line x1="421" y1="215.5" x2="379" y2="215.5" stroke="black"/>
    <line x1="421" y1="28.5" x2="379" y2="28.5" stroke="black"/>
    <line x1="774.5" y1="381" x2="774.5" y2="425" stroke="black"/>
    <path d="M776.114 448V430.545H782.011C783.375 430.545 784.494 430.778 785.369 431.244C786.244 431.705 786.892 432.338 787.312 433.145C787.733 433.952 787.943 434.869 787.943 435.898C787.943 436.926 787.733 437.838 787.312 438.634C786.892 439.429 786.247 440.054 785.378 440.509C784.509 440.957 783.398 441.182 782.045 441.182H777.273V439.273H781.977C782.909 439.273 783.659 439.136 784.227 438.864C784.801 438.591 785.216 438.205 785.472 437.705C785.733 437.199 785.864 436.597 785.864 435.898C785.864 435.199 785.733 434.588 785.472 434.065C785.21 433.543 784.793 433.139 784.219 432.855C783.645 432.565 782.886 432.42 781.943 432.42H778.227V448H776.114ZM784.33 440.159L788.625 448H786.17L781.943 440.159H784.33Z"
          fill="black"/>
    <path d="M364.114 38V20.5455H370.011C371.375 20.5455 372.494 20.7784 373.369 21.2443C374.244 21.7045 374.892 22.3381 375.312 23.1449C375.733 23.9517 375.943 24.8693 375.943 25.8977C375.943 26.9261 375.733 27.8381 375.312 28.6335C374.892 29.429 374.247 30.054 373.378 30.5085C372.509 30.9574 371.398 31.1818 370.045 31.1818H365.273V29.2727H369.977C370.909 29.2727 371.659 29.1364 372.227 28.8636C372.801 28.5909 373.216 28.2045 373.472 27.7045C373.733 27.1989 373.864 26.5966 373.864 25.8977C373.864 25.1989 373.733 24.5881 373.472 24.0653C373.21 23.5426 372.793 23.1392 372.219 22.8551C371.645 22.5653 370.886 22.4205 369.943 22.4205H366.227V38H364.114ZM372.33 30.1591L376.625 38H374.17L369.943 30.1591H372.33Z"
          fill="black"/>
    <path d="M570.114 447V429.545H576.011C577.375 429.545 578.494 429.778 579.369 430.244C580.244 430.705 580.892 431.338 581.312 432.145C581.733 432.952 581.943 433.869 581.943 434.898C581.943 435.926 581.733 436.838 581.312 437.634C580.892 438.429 580.247 439.054 579.378 439.509C578.509 439.957 577.398 440.182 576.045 440.182H571.273V438.273H575.977C576.909 438.273 577.659 438.136 578.227 437.864C578.801 437.591 579.216 437.205 579.472 436.705C579.733 436.199 579.864 435.597 579.864 434.898C579.864 434.199 579.733 433.588 579.472 433.065C579.21 432.543 578.793 432.139 578.219 431.855C577.645 431.565 576.886 431.42 575.943 431.42H572.227V447H570.114ZM578.33 439.159L582.625 447H580.17L575.943 439.159H578.33ZM591.363 428.727L585.738 449.625H583.897L589.522 428.727H591.363ZM593.713 447V445.466L599.474 439.159C600.151 438.42 600.707 437.778 601.145 437.233C601.582 436.682 601.906 436.165 602.116 435.682C602.332 435.193 602.44 434.682 602.44 434.148C602.44 433.534 602.293 433.003 601.997 432.554C601.707 432.105 601.31 431.759 600.804 431.514C600.298 431.27 599.73 431.148 599.099 431.148C598.429 431.148 597.844 431.287 597.344 431.565C596.849 431.838 596.466 432.222 596.193 432.716C595.926 433.21 595.793 433.79 595.793 434.455H593.781C593.781 433.432 594.017 432.534 594.489 431.761C594.96 430.989 595.602 430.386 596.415 429.955C597.233 429.523 598.151 429.307 599.168 429.307C600.19 429.307 601.097 429.523 601.886 429.955C602.676 430.386 603.295 430.969 603.744 431.702C604.193 432.435 604.418 433.25 604.418 434.148C604.418 434.79 604.301 435.418 604.068 436.031C603.841 436.639 603.443 437.318 602.875 438.068C602.312 438.812 601.531 439.722 600.531 440.795L596.611 444.989V445.125H604.724V447H593.713Z"
          fill="black"/>
    <path d="M344.114 225V207.545H350.011C351.375 207.545 352.494 207.778 353.369 208.244C354.244 208.705 354.892 209.338 355.312 210.145C355.733 210.952 355.943 211.869 355.943 212.898C355.943 213.926 355.733 214.838 355.312 215.634C354.892 216.429 354.247 217.054 353.378 217.509C352.509 217.957 351.398 218.182 350.045 218.182H345.273V216.273H349.977C350.909 216.273 351.659 216.136 352.227 215.864C352.801 215.591 353.216 215.205 353.472 214.705C353.733 214.199 353.864 213.597 353.864 212.898C353.864 212.199 353.733 211.588 353.472 211.065C353.21 210.543 352.793 210.139 352.219 209.855C351.645 209.565 350.886 209.42 349.943 209.42H346.227V225H344.114ZM352.33 217.159L356.625 225H354.17L349.943 217.159H352.33ZM365.363 206.727L359.738 227.625H357.897L363.522 206.727H365.363ZM367.713 225V223.466L373.474 217.159C374.151 216.42 374.707 215.778 375.145 215.233C375.582 214.682 375.906 214.165 376.116 213.682C376.332 213.193 376.44 212.682 376.44 212.148C376.44 211.534 376.293 211.003 375.997 210.554C375.707 210.105 375.31 209.759 374.804 209.514C374.298 209.27 373.73 209.148 373.099 209.148C372.429 209.148 371.844 209.287 371.344 209.565C370.849 209.838 370.466 210.222 370.193 210.716C369.926 211.21 369.793 211.79 369.793 212.455H367.781C367.781 211.432 368.017 210.534 368.489 209.761C368.96 208.989 369.602 208.386 370.415 207.955C371.233 207.523 372.151 207.307 373.168 207.307C374.19 207.307 375.097 207.523 375.886 207.955C376.676 208.386 377.295 208.969 377.744 209.702C378.193 210.435 378.418 211.25 378.418 212.148C378.418 212.79 378.301 213.418 378.068 214.031C377.841 214.639 377.443 215.318 376.875 216.068C376.312 216.812 375.531 217.722 374.531 218.795L370.611 222.989V223.125H378.724V225H367.713Z"
          fill="black"/>
    <path d="M336.341 586.335V588.21H328.705V586.335H336.341ZM340.153 596V578.545H346.05C347.414 578.545 348.533 578.778 349.408 579.244C350.283 579.705 350.931 580.338 351.352 581.145C351.772 581.952 351.982 582.869 351.982 583.898C351.982 584.926 351.772 585.838 351.352 586.634C350.931 587.429 350.286 588.054 349.417 588.509C348.548 588.957 347.437 589.182 346.085 589.182H341.312V587.273H346.016C346.948 587.273 347.698 587.136 348.266 586.864C348.84 586.591 349.255 586.205 349.511 585.705C349.772 585.199 349.903 584.597 349.903 583.898C349.903 583.199 349.772 582.588 349.511 582.065C349.249 581.543 348.832 581.139 348.258 580.855C347.684 580.565 346.925 580.42 345.982 580.42H342.266V596H340.153ZM348.369 588.159L352.664 596H350.21L345.982 588.159H348.369ZM361.402 577.727L355.777 598.625H353.936L359.561 577.727H361.402ZM363.752 596V594.466L369.513 588.159C370.19 587.42 370.746 586.778 371.184 586.233C371.621 585.682 371.945 585.165 372.156 584.682C372.371 584.193 372.479 583.682 372.479 583.148C372.479 582.534 372.332 582.003 372.036 581.554C371.746 581.105 371.349 580.759 370.843 580.514C370.337 580.27 369.769 580.148 369.138 580.148C368.468 580.148 367.883 580.287 367.383 580.565C366.888 580.838 366.505 581.222 366.232 581.716C365.965 582.21 365.832 582.79 365.832 583.455H363.82C363.82 582.432 364.056 581.534 364.528 580.761C364.999 579.989 365.641 579.386 366.454 578.955C367.272 578.523 368.19 578.307 369.207 578.307C370.229 578.307 371.136 578.523 371.925 578.955C372.715 579.386 373.335 579.969 373.783 580.702C374.232 581.435 374.457 582.25 374.457 583.148C374.457 583.79 374.34 584.418 374.107 585.031C373.88 585.639 373.482 586.318 372.914 587.068C372.352 587.812 371.57 588.722 370.57 589.795L366.65 593.989V594.125H374.763V596H363.752Z"
          fill="black"/>
    <path d="M204.341 438.335V440.21H196.705V438.335H204.341ZM208.153 448V430.545H214.05C215.414 430.545 216.533 430.778 217.408 431.244C218.283 431.705 218.931 432.338 219.352 433.145C219.772 433.952 219.982 434.869 219.982 435.898C219.982 436.926 219.772 437.838 219.352 438.634C218.931 439.429 218.286 440.054 217.417 440.509C216.548 440.957 215.437 441.182 214.085 441.182H209.312V439.273H214.016C214.948 439.273 215.698 439.136 216.266 438.864C216.84 438.591 217.255 438.205 217.511 437.705C217.772 437.199 217.903 436.597 217.903 435.898C217.903 435.199 217.772 434.588 217.511 434.065C217.249 433.543 216.832 433.139 216.258 432.855C215.684 432.565 214.925 432.42 213.982 432.42H210.266V448H208.153ZM216.369 440.159L220.664 448H218.21L213.982 440.159H216.369ZM229.402 429.727L223.777 450.625H221.936L227.561 429.727H229.402ZM231.752 448V446.466L237.513 440.159C238.19 439.42 238.746 438.778 239.184 438.233C239.621 437.682 239.945 437.165 240.156 436.682C240.371 436.193 240.479 435.682 240.479 435.148C240.479 434.534 240.332 434.003 240.036 433.554C239.746 433.105 239.349 432.759 238.843 432.514C238.337 432.27 237.769 432.148 237.138 432.148C236.468 432.148 235.883 432.287 235.383 432.565C234.888 432.838 234.505 433.222 234.232 433.716C233.965 434.21 233.832 434.79 233.832 435.455H231.82C231.82 434.432 232.056 433.534 232.528 432.761C232.999 431.989 233.641 431.386 234.454 430.955C235.272 430.523 236.19 430.307 237.207 430.307C238.229 430.307 239.136 430.523 239.925 430.955C240.715 431.386 241.335 431.969 241.783 432.702C242.232 433.435 242.457 434.25 242.457 435.148C242.457 435.79 242.34 436.418 242.107 437.031C241.88 437.639 241.482 438.318 240.914 439.068C240.352 439.812 239.57 440.722 238.57 441.795L234.65 445.989V446.125H242.763V448H231.752Z"
          fill="black"/>
    <path d="M23.3409 438.335V440.21H15.7045V438.335H23.3409ZM27.1527 448V430.545H33.0504C34.4141 430.545 35.5334 430.778 36.4084 431.244C37.2834 431.705 37.9311 432.338 38.3516 433.145C38.772 433.952 38.9822 434.869 38.9822 435.898C38.9822 436.926 38.772 437.838 38.3516 438.634C37.9311 439.429 37.2862 440.054 36.4169 440.509C35.5476 440.957 34.4368 441.182 33.0845 441.182H28.3118V439.273H33.0163C33.9482 439.273 34.6982 439.136 35.2663 438.864C35.8402 438.591 36.255 438.205 36.5107 437.705C36.772 437.199 36.9027 436.597 36.9027 435.898C36.9027 435.199 36.772 434.588 36.5107 434.065C36.2493 433.543 35.8317 433.139 35.2578 432.855C34.6839 432.565 33.9254 432.42 32.9822 432.42H29.2663V448H27.1527ZM35.3686 440.159L39.6641 448H37.2095L32.9822 440.159H35.3686Z"
          fill="black"/>
    <line x1="400" y1="401.5" x2="800" y2="401.5" stroke="black"/>
</svg>
